<svg width="18" height="18" viewBox="0 0 18 18" fill="none" xmlns="http://www.w3.org/2000/svg">
<g clip-path="url(#clip0_2070_1648)">
<path d="M8.99844 3.60002V9.00002L12.5 11M17.0984 9.00002C17.0984 10.0637 16.8889 11.117 16.4819 12.0998C16.0748 13.0825 15.4782 13.9754 14.726 14.7276C13.9738 15.4797 13.0809 16.0764 12.0982 16.4834C11.1154 16.8905 10.0621 17.1 8.99844 17.1C7.93473 17.1 6.88144 16.8905 5.8987 16.4834C4.91596 16.0764 4.02303 15.4797 3.27087 14.7276C2.51872 13.9754 1.92208 13.0825 1.51501 12.0998C1.10795 11.117 0.898437 10.0637 0.898438 9.00002C0.898438 6.85177 1.75183 4.7915 3.27087 3.27246C4.78992 1.75341 6.85018 0.900024 8.99844 0.900024C11.1467 0.900024 13.207 1.75341 14.726 3.27246C16.245 4.7915 17.0984 6.85177 17.0984 9.00002Z" stroke="#162951" stroke-width="1.5" stroke-linecap="round" stroke-linejoin="round"/>
</g>
<defs>
<clipPath id="clip0_2070_1648">
<rect width="18" height="18" fill="white"/>
</clipPath>
</defs>
</svg>
