<svg width="21" height="18" viewBox="0 0 21 18" fill="none" xmlns="http://www.w3.org/2000/svg">
<g clip-path="url(#clip0_2070_1661)">
<path d="M16.2273 14.8917L16.2282 14.9211C16.2282 15.1343 16.2168 15.3446 16.1929 15.552C14.4607 16.5384 12.4979 17.0558 10.501 17.0527C8.42959 17.0527 6.48518 16.507 4.809 15.552C4.78446 15.3328 4.77266 15.1123 4.77368 14.8917C4.77711 13.8181 5.09023 12.7676 5.67286 11.863C6.19023 11.0577 6.90387 10.3948 7.74778 9.9358C8.59169 9.47678 9.53861 9.2364 10.501 9.23689C11.4634 9.23624 12.4106 9.47655 13.2547 9.93558C14.0987 10.3946 14.8125 11.0575 15.33 11.863C15.913 12.7675 16.2245 13.8189 16.2282 14.8927C17.4374 14.9907 18.6539 14.8362 19.7992 14.4389C19.8429 13.904 19.7331 13.3677 19.4826 12.8922C19.232 12.4166 18.851 12.0212 18.3834 11.7516C17.9159 11.482 17.381 11.3493 16.8406 11.3689C16.3003 11.3884 15.7765 11.5594 15.33 11.862M4.77368 14.8917C3.56487 14.9933 2.34905 14.8393 1.20463 14.4398C1.16106 13.9051 1.27087 13.369 1.52138 12.8936C1.77188 12.4182 2.15285 12.0229 2.62023 11.7534C3.0876 11.4838 3.6223 11.3511 4.1625 11.3705C4.7027 11.3899 5.22633 11.5606 5.67286 11.863M13.3646 3.55268C13.3646 4.30645 13.0629 5.02935 12.5258 5.56235C11.9888 6.09535 11.2604 6.39478 10.501 6.39478C9.74147 6.39478 9.01309 6.09535 8.47605 5.56235C7.93902 5.02935 7.63731 4.30645 7.63731 3.55268C7.63731 2.7989 7.93902 2.076 8.47605 1.543C9.01309 1.01001 9.74147 0.710571 10.501 0.710571C11.2604 0.710571 11.9888 1.01001 12.5258 1.543C13.0629 2.076 13.3646 2.7989 13.3646 3.55268ZM19.0919 6.39478C19.0919 6.6747 19.0363 6.95189 18.9284 7.2105C18.8204 7.46912 18.6622 7.7041 18.4628 7.90204C18.2634 8.09997 18.0266 8.25698 17.766 8.3641C17.5055 8.47123 17.2262 8.52636 16.9441 8.52636C16.6621 8.52636 16.3828 8.47123 16.1222 8.3641C15.8617 8.25698 15.6249 8.09997 15.4255 7.90204C15.226 7.7041 15.0678 7.46912 14.9599 7.2105C14.852 6.95189 14.7964 6.6747 14.7964 6.39478C14.7964 5.82945 15.0227 5.28728 15.4255 4.88753C15.8282 4.48778 16.3745 4.2632 16.9441 4.2632C17.5137 4.2632 18.06 4.48778 18.4628 4.88753C18.8656 5.28728 19.0919 5.82945 19.0919 6.39478ZM6.2055 6.39478C6.2055 6.6747 6.14994 6.95189 6.04201 7.2105C5.93408 7.46912 5.77588 7.7041 5.57644 7.90204C5.37701 8.09997 5.14024 8.25698 4.87967 8.3641C4.61909 8.47123 4.33981 8.52636 4.05777 8.52636C3.77573 8.52636 3.49644 8.47123 3.23587 8.3641C2.9753 8.25698 2.73853 8.09997 2.5391 7.90204C2.33966 7.7041 2.18146 7.46912 2.07353 7.2105C1.96559 6.95189 1.91004 6.6747 1.91004 6.39478C1.91004 5.82945 2.13632 5.28728 2.5391 4.88753C2.94187 4.48778 3.48816 4.2632 4.05777 4.2632C4.62738 4.2632 5.17366 4.48778 5.57644 4.88753C5.97922 5.28728 6.2055 5.82945 6.2055 6.39478Z" stroke="#162951" stroke-width="1.5" stroke-linecap="round" stroke-linejoin="round"/>
</g>
<defs>
<clipPath id="clip0_2070_1661">
<rect width="21" height="18" fill="white"/>
</clipPath>
</defs>
</svg>
