<svg width="19" height="18" viewBox="0 0 19 18" fill="none" xmlns="http://www.w3.org/2000/svg">
<path d="M14.0573 0H4.69179C2.10438 0 0 2.11003 0 4.7044V13.2956C0 15.89 2.10438 18 4.69179 18H14.0573C16.6447 18 18.7491 15.89 18.7491 13.2956V4.7044C18.7491 2.11003 16.6447 0 14.0573 0ZM1.65492 4.7044C1.65492 3.02518 3.01708 1.65936 4.69179 1.65936H14.0573C15.732 1.65936 17.0942 3.02518 17.0942 4.7044V13.2956C17.0942 14.9748 15.732 16.3406 14.0573 16.3406H4.69179C3.01708 16.3406 1.65492 14.9748 1.65492 13.2956V4.7044Z" fill="#162951"/>
<path d="M9.3724 13.3759C11.779 13.3759 13.737 11.4127 13.737 8.99962C13.737 6.58655 11.779 4.62329 9.3724 4.62329C6.96581 4.62329 5.00781 6.58655 5.00781 8.99962C5.00781 11.4127 6.96581 13.3759 9.3724 13.3759ZM9.3724 6.28352C10.8663 6.28352 12.0812 7.5017 12.0812 8.99962C12.0812 10.4975 10.8663 11.7157 9.3724 11.7157C7.8785 11.7157 6.66358 10.4975 6.66358 8.99962C6.66358 7.5017 7.8785 6.28352 9.3724 6.28352Z" fill="#162951"/>
<path d="M14.141 5.33035C14.7894 5.33035 15.3172 4.80112 15.3172 4.15102C15.3172 3.50091 14.7894 2.97168 14.141 2.97168C13.4927 2.97168 12.9648 3.50091 12.9648 4.15102C12.9648 4.80112 13.4927 5.33035 14.141 5.33035Z" fill="#162951"/>
</svg>
