<svg width="15" height="18" viewBox="0 0 15 18" fill="none" xmlns="http://www.w3.org/2000/svg">
<g clip-path="url(#clip0_2045_11)">
<path d="M10.035 16.9135L8.90333 12.7636M8.90333 12.7636L6.81167 14.5841L7.28583 6.83592L11.6417 13.3135L8.90333 12.7636ZM2.63833 12.5452C1.83894 11.7602 1.24905 10.7938 0.920917 9.73156C0.592788 8.66931 0.536547 7.54399 0.757176 6.4553C0.977805 5.3666 1.46849 4.34813 2.18578 3.4901C2.90306 2.63207 3.8248 1.96096 4.86935 1.53621C5.9139 1.11147 7.04902 0.946205 8.17417 1.05506C9.29931 1.16391 10.3797 1.54351 11.3198 2.16025C12.2598 2.77699 13.0304 3.61183 13.5633 4.59081C14.0962 5.56979 14.375 6.6627 14.375 7.77274M4.40667 10.8098C3.89785 10.3103 3.52236 9.69537 3.31346 9.01937C3.10456 8.34338 3.06869 7.62723 3.20904 6.93437C3.34938 6.24151 3.66161 5.59333 4.11806 5.04725C4.57451 4.50117 5.16108 4.07405 5.82583 3.80372C6.49058 3.53339 7.21297 3.4282 7.92901 3.49748C8.64505 3.56675 9.33264 3.80834 9.93087 4.20085C10.5291 4.59336 11.0195 5.12467 11.3586 5.74772C11.6977 6.37076 11.8751 7.06631 11.875 7.77274" stroke="#162951" stroke-width="1.5" stroke-linecap="round" stroke-linejoin="round"/>
</g>
<defs>
<clipPath id="clip0_2045_11">
<rect width="15" height="18" fill="white"/>
</clipPath>
</defs>
</svg>
