<svg width="20" height="18" viewBox="0 0 20 18" fill="none" xmlns="http://www.w3.org/2000/svg">
<g clip-path="url(#clip0_2070_1658)">
<path d="M1.13672 9.68403C1.13672 11.124 2.15763 12.3786 3.59763 12.5883C4.58581 12.7323 5.58399 12.843 6.59126 12.9204V17.1L10.2967 13.4316C10.548 13.1844 10.8853 13.0418 11.2394 13.0329C12.968 12.9856 14.6922 12.8371 16.4031 12.5883C17.8431 12.3786 18.864 11.1249 18.864 9.68313V4.26693C18.864 2.82513 17.8431 1.57143 16.4031 1.36173C14.283 1.05367 12.1431 0.899358 10.0004 0.900027C7.82581 0.900027 5.68763 1.05753 3.59763 1.36173C2.15763 1.57143 1.13672 2.82603 1.13672 4.26693V9.68313V9.68403Z" stroke="#162951" stroke-width="1.5" stroke-linecap="round" stroke-linejoin="round"/>
</g>
<defs>
<clipPath id="clip0_2070_1658">
<rect width="20" height="18" fill="white"/>
</clipPath>
</defs>
</svg>
