<svg width="18" height="18" viewBox="0 0 18 18" fill="none" xmlns="http://www.w3.org/2000/svg">
<g clip-path="url(#clip0_2070_1664)">
<path d="M7.21135 12.1942L6.54616 14.5227L5.88098 12.1942C5.70906 11.5927 5.38672 11.0449 4.94438 10.6026C4.50203 10.1602 3.95428 9.8379 3.3528 9.66598L1.02344 8.99998L3.35198 8.3348C3.95346 8.16287 4.50122 7.84053 4.94356 7.39819C5.3859 6.95585 5.70824 6.40809 5.88016 5.80661L6.54616 3.47725L7.21135 5.8058C7.38327 6.40727 7.70561 6.95503 8.14795 7.39737C8.59029 7.83971 9.13805 8.16206 9.73953 8.33398L12.0689 8.99998L9.74035 9.66516C9.13887 9.83708 8.59111 10.1594 8.14877 10.6018C7.70643 11.0441 7.38409 11.5919 7.21216 12.1933L7.21135 12.1942ZM14.1217 6.31225L13.9098 7.15907L13.6979 6.31225C13.5766 5.82673 13.3256 5.3833 12.9718 5.02937C12.6181 4.67543 12.1747 4.42429 11.6893 4.3028L10.8416 4.09089L11.6893 3.87898C12.1747 3.75748 12.6181 3.50634 12.9718 3.15241C13.3256 2.79847 13.5766 2.35504 13.6979 1.86952L13.9098 1.02271L14.1217 1.86952C14.2431 2.35514 14.4942 2.79864 14.8481 3.15259C15.202 3.50653 15.6455 3.75761 16.1312 3.87898L16.978 4.09089L16.1312 4.3028C15.6455 4.42416 15.202 4.67524 14.8481 5.02919C14.4942 5.38313 14.2431 5.82663 14.1217 6.31225ZM13.0049 16.0093L12.6825 16.9773L12.3602 16.0093C12.2698 15.7382 12.1175 15.4919 11.9154 15.2898C11.7134 15.0877 11.467 14.9354 11.1959 14.8451L10.228 14.5227L11.1959 14.2003C11.467 14.11 11.7134 13.9577 11.9154 13.7556C12.1175 13.5535 12.2698 13.3072 12.3602 13.0361L12.6825 12.0682L13.0049 13.0361C13.0953 13.3072 13.2475 13.5535 13.4496 13.7556C13.6517 13.9577 13.898 14.11 14.1692 14.2003L15.1371 14.5227L14.1692 14.8451C13.898 14.9354 13.6517 15.0877 13.4496 15.2898C13.2475 15.4919 13.0953 15.7382 13.0049 16.0093Z" stroke="#162951" stroke-width="1.5" stroke-linecap="round" stroke-linejoin="round"/>
</g>
<defs>
<clipPath id="clip0_2070_1664">
<rect width="18" height="18" fill="white"/>
</clipPath>
</defs>
</svg>
