<svg width="18" height="21" viewBox="0 0 18 21" fill="none" xmlns="http://www.w3.org/2000/svg">
<g clip-path="url(#clip0_2070_1651)">
<path d="M8.99844 6.60002V12L12.5 14M17.0984 12C17.0984 13.0637 16.8889 14.117 16.4819 15.0998C16.0748 16.0825 15.4782 16.9754 14.726 17.7276C13.9738 18.4797 13.0809 19.0764 12.0982 19.4834C11.1154 19.8905 10.0621 20.1 8.99844 20.1C7.93473 20.1 6.88144 19.8905 5.8987 19.4834C4.91596 19.0764 4.02303 18.4797 3.27087 17.7276C2.51872 16.9754 1.92208 16.0825 1.51501 15.0998C1.10795 14.117 0.898437 13.0637 0.898438 12C0.898438 9.85177 1.75183 7.7915 3.27087 6.27246C4.78992 4.75341 6.85018 3.90002 8.99844 3.90002C11.1467 3.90002 13.207 4.75341 14.726 6.27246C16.245 7.7915 17.0984 9.85177 17.0984 12Z" stroke="#162951" stroke-width="1.5" stroke-linecap="round" stroke-linejoin="round"/>
<rect x="6" width="6" height="1.5" rx="0.75" fill="#162951"/>
</g>
<defs>
<clipPath id="clip0_2070_1651">
<rect width="18" height="21" fill="white"/>
</clipPath>
</defs>
</svg>
