<svg width="26" height="26" viewBox="0 0 26 26" fill="none" xmlns="http://www.w3.org/2000/svg">
<g clip-path="url(#clip0_2073_1667)">
<path d="M13.0008 1.30005V4.22505M21.274 4.72685L19.2057 6.79515M24.7008 13H21.7758M21.274 21.2732L19.2057 19.2049M13.0008 21.775V24.7M6.79588 19.2049L4.72758 21.2732M4.22578 13H1.30078M6.79588 6.79515L4.72758 4.72685M17.8758 13C17.8758 14.293 17.3622 15.533 16.4479 16.4472C15.5337 17.3614 14.2937 17.875 13.0008 17.875C11.7079 17.875 10.4679 17.3614 9.55364 16.4472C8.6394 15.533 8.12578 14.293 8.12578 13C8.12578 11.7071 8.6394 10.4671 9.55364 9.5529C10.4679 8.63866 11.7079 8.12505 13.0008 8.12505C14.2937 8.12505 15.5337 8.63866 16.4479 9.5529C17.3622 10.4671 17.8758 11.7071 17.8758 13Z" stroke="#162951" stroke-width="1.5" stroke-linecap="round" stroke-linejoin="round"/>
</g>
<defs>
<clipPath id="clip0_2073_1667">
<rect width="26" height="26" fill="white"/>
</clipPath>
</defs>
</svg>
