<svg width="22" height="18" viewBox="0 0 22 18" fill="none" xmlns="http://www.w3.org/2000/svg">
<path d="M0.573331 8.20704C0.623589 8.18169 0.673845 8.15838 0.724103 8.13607C1.58055 7.74368 2.44827 7.37664 3.31497 7.00959C3.36215 7.00959 3.44113 6.95686 3.48421 6.9376C3.55088 6.90921 3.61756 6.88082 3.68525 6.85243C3.81346 6.79768 3.9427 6.74394 4.07091 6.68919C4.32836 6.5807 4.58477 6.4712 4.84221 6.36271C5.35608 6.14572 5.87098 5.92772 6.38485 5.70973C7.4136 5.27475 8.44236 4.83977 9.47112 4.4048C10.4999 3.96982 11.5286 3.53484 12.5574 3.09987C13.5862 2.66489 14.6149 2.22991 15.6437 1.79494C16.6724 1.35996 17.7012 0.924983 18.73 0.490006C18.9587 0.393682 19.2069 0.247682 19.451 0.205097C19.6572 0.16961 19.8582 0.098629 20.0644 0.0600996C20.4572 -0.0139174 20.8911 -0.0443295 21.2675 0.116886C21.3978 0.172652 21.5167 0.251731 21.6183 0.350083C22.0952 0.817505 22.0286 1.58404 21.928 2.24107C21.2244 6.81999 20.5208 11.3979 19.8162 15.9768C19.7197 16.6044 19.5895 17.2939 19.0869 17.6904C18.6623 18.026 18.0581 18.0645 17.535 17.9215C17.0109 17.7786 16.5483 17.4774 16.095 17.1803C14.2139 15.9494 12.3328 14.7175 10.4517 13.4866C10.0045 13.1936 9.50702 12.8123 9.51215 12.282C9.51523 11.9627 9.70805 11.6777 9.90498 11.4242C11.5389 9.3173 13.899 7.8684 15.6529 5.85777C15.9001 5.57488 16.095 5.06182 15.7555 4.89858C15.5534 4.80124 15.3206 4.93306 15.137 5.05981C12.8179 6.65269 10.4989 8.24558 8.17979 9.83745C7.42284 10.3566 6.62998 10.8919 5.71815 11.0197C4.90273 11.1343 4.08116 10.9102 3.29138 10.68C2.62982 10.4874 1.96928 10.2907 1.3108 10.0869C0.961039 9.9794 0.599998 9.86381 0.329218 9.61945C0.0584377 9.37611 -0.0964401 8.96648 0.0666434 8.64202C0.168186 8.43822 0.367164 8.30945 0.575378 8.20501L0.573331 8.20704Z" fill="#162951"/>
</svg>
