<svg width="15" height="18" viewBox="0 0 15 18" fill="none" xmlns="http://www.w3.org/2000/svg">
<g clip-path="url(#clip0_2047_20)">
<path d="M13.75 17.234V17.125C13.75 15.4342 13.0784 13.8127 11.8828 12.6172C10.6873 11.4216 9.06576 10.75 7.375 10.75C5.68424 10.75 4.06274 11.4216 2.86719 12.6172C1.67165 13.8127 1 15.4342 1 17.125V17.235V17.234M10.75 4.375C10.75 5.27011 10.3944 6.12855 9.76149 6.76149C9.12855 7.39442 8.27011 7.75 7.375 7.75C6.47989 7.75 5.62145 7.39442 4.98851 6.76149C4.35558 6.12855 4 5.27011 4 4.375C4 3.47989 4.35558 2.62145 4.98851 1.98851C5.62145 1.35558 6.47989 1 7.375 1C8.27011 1 9.12855 1.35558 9.76149 1.98851C10.3944 2.62145 10.75 3.47989 10.75 4.375Z" stroke="#162951" stroke-width="1.5" stroke-linecap="round" stroke-linejoin="round"/>
</g>
<defs>
<clipPath id="clip0_2047_20">
<rect width="15" height="18" fill="white"/>
</clipPath>
</defs>
</svg>
